# xmcd
#
# Track frame offsets:
#	150
#	12877
#	32042
#	45355
#	62770
#	83782
#	99590
#	114610
#	126002
#	140175
#	151557
#	167692
#
# Disc length: 2405 seconds
#
# Revision: 4
# Processed by: cddbd v1.5.2PL0 Copyright (c) Steve Scherf et al.
# Submitted via: audiograbber 1.83.01
#
DISCID=9109630c
DTITLE=Various Artist - Platinum Country
DYEAR=1900
DGENRE=Oldies
TTITLE0=Trisha Yearwood - X's And O's
TTITLE1=Vince Gill - When I Call Your Name
TTITLE2=Marty Stuart - Touch Me, Turn Me On
TTITLE3=Mavericks - What A Cryin' Shame
TTITLE4=Reba McEntire - Man From Boston
TTITLE5=Geroge Jones - Rockin' Chair
TTITLE6=McBride and The Ride - Sacred Ground
TTITLE7=Patty Loveless - Timber, I'm Fallin' In Love
TTITLE8=Geroge Strait - She Don't Like Me Anymore
TTITLE9=Tracy Bryd - I'm Holdin' Heaven In My Arms Tonite
TTITLE10=Wynonna - Only Love
TTITLE11=Mark Chesnutt - Your Love Is A Miracle
EXTD=
EXTT0=
EXTT1=
EXTT2=
EXTT3=
EXTT4=
EXTT5=
EXTT6=
EXTT7=
EXTT8=
EXTT9=
EXTT10=
EXTT11=
PLAYORDER=
